<?xml version="1.0" encoding="UTF-8"?>
<svg id="Layer_2" data-name="Layer 2" xmlns="http://www.w3.org/2000/svg" width="330" height="330" viewBox="0 0 330 330">
  <defs>
    <style>
      .cls-1 {
        fill: #47abff; /* Foreground color */
      }
      .background {
        fill: #041635; /* Background color */
      }
    </style>
  </defs>
  <rect width="330" height="330" class="background"></rect> <!-- Background rectangle -->
  <g id="Layer_1-2" data-name="Layer 1" transform="translate(28 15)"> <!-- Adjust translation to center the content -->
    <path class="cls-1" d="M253.26,199.19c-5.01,0-9.46,1.67-12.8,4.45l-41.75-23.92v-58.98l41.75-23.92c3.34,2.78,7.79,4.45,12.8,4.45,11.69,0,21.15-9.46,21.15-21.14s-9.46-21.14-21.15-21.14-21.15,9.46-21.15,21.14c0,2.78.56,5.56,1.67,8.35l-40.63,22.81-50.65-29.49v-40.06c8.91-2.23,15.59-10.57,15.59-20.59,0-11.68-9.46-21.14-21.15-21.14s-21.15,9.46-21.15,21.14c0,10.01,6.68,17.8,15.59,20.59v40.06l-50.65,29.49-40.08-23.37c1.11-2.78,1.67-5.56,1.67-8.35,0-11.68-9.46-21.14-21.15-21.14S0,67.88,0,79.56s9.46,21.14,21.15,21.14c5.01,0,8.91-1.67,12.8-4.45l41.75,23.92v58.98l-41.75,23.92c-3.34-2.78-7.79-4.45-12.8-4.45-11.69,0-21.15,9.46-21.15,21.14s9.46,21.14,21.15,21.14,21.15-9.46,21.15-21.14c0-2.78-.56-5.56-1.67-7.79l40.08-23.37,50.65,29.49v41.17c-8.91,2.23-15.59,10.57-15.59,20.59,0,11.68,9.46,21.14,21.15,21.14s21.15-9.46,21.15-21.14c0-10.01-6.68-18.36-15.59-20.59v-41.17l50.65-29.49,40.08,23.37c-1.11,2.23-1.67,5.01-1.67,7.79,0,11.68,9.46,21.14,21.15,21.14s21.15-9.46,21.15-21.14-8.91-20.59-20.6-20.59h0ZM187.58,179.16l-.56.56-44.53,26.15v-52.3l45.09-26.15v51.74h0ZM253.26,69.55c5.57,0,10.02,4.45,10.02,10.01s-4.45,10.01-10.02,10.01-10.02-4.45-10.02-10.01,4.45-10.01,10.02-10.01h0ZM126.91,21.14c0-5.56,4.45-10.01,10.02-10.01s10.02,4.45,10.02,10.01-4.45,10.57-10.02,10.57-10.02-4.45-10.02-10.57h0ZM136.93,91.8l45.64,26.15-45.64,25.59-45.09-26.15,45.09-25.59h0ZM10.02,79.56c0-5.56,4.45-10.01,10.02-10.01s10.02,4.45,10.02,10.01-4.45,10.01-10.02,10.01-10.02-4.45-10.02-10.01h0ZM131.36,153.56v52.3l-45.09-26.15v-52.3l45.09,26.15h0ZM20.6,230.9c-5.57,0-10.02-4.45-10.02-10.01s4.45-10.01,10.02-10.01c2.78,0,5.57,1.11,7.24,2.78.56.56.56,1.11,1.11,1.11,1.11,1.67,1.67,3.89,1.67,6.12,0,5.01-4.45,10.01-10.02,10.01h0ZM146.95,279.86c0,5.56-4.45,10.01-10.02,10.01s-10.02-4.45-10.02-10.01,4.45-10.01,10.02-10.01,10.02,4.45,10.02,10.01h0ZM253.26,230.9c-5.57,0-10.02-4.45-10.02-10.01s4.45-10.01,10.02-10.01,10.02,4.45,10.02,10.01-4.45,10.01-10.02,10.01h0Z"/>
  </g>
</svg>
